<?xml version="1.0" encoding="UTF-8" standalone="no"?>
<!-- Created with Inkscape (http://www.inkscape.org/) -->

<svg
   width="210mm"
   height="297mm"
   viewBox="0 0 210 297"
   version="1.1"
   id="svg1"
   inkscape:version="1.4 (e7c3feb100, 2024-10-09)"
   sodipodi:docname="image.svg"
   xmlns:inkscape="http://www.inkscape.org/namespaces/inkscape"
   xmlns:sodipodi="http://sodipodi.sourceforge.net/DTD/sodipodi-0.dtd"
   xmlns="http://www.w3.org/2000/svg"
   xmlns:svg="http://www.w3.org/2000/svg">
  <sodipodi:namedview
     id="namedview1"
     pagecolor="#ffffff"
     bordercolor="#000000"
     borderopacity="0.25"
     inkscape:showpageshadow="2"
     inkscape:pageopacity="0.0"
     inkscape:pagecheckerboard="0"
     inkscape:deskcolor="#d1d1d1"
     inkscape:document-units="mm"
     inkscape:zoom="2.9304259"
     inkscape:cx="537.80579"
     inkscape:cy="629.77194"
     inkscape:window-width="2500"
     inkscape:window-height="1371"
     inkscape:window-x="0"
     inkscape:window-y="0"
     inkscape:window-maximized="1"
     inkscape:current-layer="layer1" />
  <defs
     id="defs1" />
  <g
     inkscape:label="Layer 1"
     inkscape:groupmode="layer"
     id="layer1">
    <circle
       style="fill:none;stroke:#000000;stroke-width:0.264999"
       id="path22"
       cx="161.14102"
       cy="80.953568"
       r="12.002579" />
    <path
       style="fill:none;stroke:#000000;stroke-width:0.264999"
       d="m 161.52407,93.01999 v 16.85469"
       id="path23" />
    <path
       style="fill:none;stroke:#000000;stroke-width:0.264999"
       d="m 153.16057,109.81083 h 16.02472"
       id="path24" />
    <path
       style="fill:none;stroke:#000000;stroke-width:0.264999"
       d="m 102.75612,80.825881 -9.384991,0.03192"
       id="path27" />
    <path
       style="fill:none;stroke:#000000;stroke-width:0.264999"
       d="m 93.466895,80.825881 -0.03192,4.149829"
       id="path28" />
    <path
       style="fill:none;stroke:#000000;stroke-width:0.264999"
       d="m 90.689701,84.848022 c 0.04256,0 0.127688,0.04256 0.127688,0 0,-0.04256 -0.170248,0 -0.127688,0 0.117047,0 0.234093,0 0.351139,0 0.223454,0 0.446906,0 0.670359,0 1.010854,0 2.021711,0 3.032567,0 0.319217,0 0.638435,0 0.957652,0 0.12633,0 0.328117,0.03959 0.446905,0 0.09096,-0.03032 0.157718,-0.03192 0.255373,-0.03192"
       id="path29" />
    <path
       style="fill:none;stroke:#000000;stroke-width:0.264999"
       d="m 91.55159,85.454534 3.671001,-0.06384"
       id="path30" />
    <path
       style="fill:none;stroke:#000000;stroke-width:0.264999"
       d="m 92.413478,86.061049 h 1.851461"
       id="path31" />
    <path
       style="fill:none;stroke:#000000;stroke-width:0.264999"
       d="m 92.073406,180.42761 c 0.04256,0 0.127688,0.0426 0.127688,0 0,-0.0426 -0.170248,0 -0.127688,0 0.117047,0 0.234093,0 0.351139,0 0.223454,0 0.446906,0 0.670359,0 1.010854,0 2.021711,0 3.032567,0 0.319217,0 0.638435,0 0.957652,0 0.12633,0 0.328117,0.0396 0.446905,0 0.09096,-0.0303 0.157718,-0.0319 0.255374,-0.0319"
       id="path29-9" />
    <path
       style="fill:none;stroke:#000000;stroke-width:0.264999"
       d="m 92.935295,181.03412 3.671001,-0.0638"
       id="path30-2" />
    <path
       style="fill:none;stroke:#000000;stroke-width:0.264999"
       d="m 93.797183,181.64063 h 1.851461"
       id="path31-0" />
    <path
       style="fill:none;stroke:#000000;stroke-width:0.264999"
       d="m 121.82016,179.54393 c 0.0426,0 0.12769,0.0426 0.12769,0 0,-0.0426 -0.17025,0 -0.12769,0 0.11705,0 0.23409,0 0.35114,0 0.22345,0 0.4469,0 0.67036,0 1.01085,0 2.02171,0 3.03256,0 0.31922,0 0.63844,0 0.95765,0 0.12633,0 0.32812,0.0396 0.44691,0 0.091,-0.0303 0.15772,-0.0319 0.25537,-0.0319"
       id="path29-9-5" />
    <path
       style="fill:none;stroke:#000000;stroke-width:0.264999"
       d="m 122.68205,180.15044 3.671,-0.0638"
       id="path30-2-2" />
    <path
       style="fill:none;stroke:#000000;stroke-width:0.264999"
       d="m 123.54394,180.75695 h 1.85146"
       id="path31-0-5" />
    <path
       style="fill:none;stroke:#000000;stroke-width:0.264999"
       d="M 93.448446,80.808078 93.358159,70.244339"
       id="path32" />
    <path
       style="fill:none;stroke:#000000;stroke-width:0.264999"
       d="m 93.448446,70.424915 h 7.132784"
       id="path33" />
    <circle
       style="fill:none;stroke:#000000;stroke-width:0.264999"
       id="path34"
       cx="104.10246"
       cy="70.244339"
       r="3.3406692" />
    <path
       style="fill:none;stroke:#000000;stroke-width:0.264999"
       d="m 105.81795,80.808078 c 0.12038,0 0.36116,0.120382 0.36116,0 0,-0.120386 -0.48154,0 -0.36116,0 0.42135,0 0.84269,0 1.26404,0 0.6321,0 1.29681,-0.05952 1.89605,0.09029 0.22797,0.05699 0.60353,-0.104532 0.8126,0 0.0761,0.03807 0.10975,0.133361 0.18057,0.180578 0.17953,0.119684 1.3247,-0.100166 1.6252,0 0.46393,0.154644 0.9741,0.243525 1.44461,0.361154 0.11679,0.0292 0.24694,-0.03807 0.36115,0 0.0404,0.01347 0.049,0.07997 0.0903,0.09029 0.19828,0.04957 0.43374,-0.04957 0.63202,0 0.38053,0.09513 0.81604,0.182295 1.17375,0.361153 0.0761,0.03807 0.10975,0.133358 0.18057,0.180576 0.056,0.03733 0.1402,0.03645 0.18058,0.09029 0.0571,0.07614 0.0477,0.18574 0.0903,0.270864 0.019,0.03807 0.0602,0.06019 0.0903,0.09029 0.0602,0.09029 0.13205,0.173807 0.18057,0.270864 0.0851,0.170249 0.0861,0.376465 0.18058,0.541729 0.0747,0.130654 0.20357,0.22656 0.27087,0.361154 0.25785,0.515699 0.35973,1.169477 0.54173,1.715479 0.0862,0.258572 0.26348,0.478133 0.36115,0.722307 0.0782,0.195392 0.0611,1.866892 0.0903,1.896054 0.0213,0.02127 0.0634,-0.01347 0.0903,0 0.20783,0.103918 -0.0394,0.105913 0.18057,0.270867 0.0761,0.0571 0.19168,0.0375 0.27087,0.09029 0.10624,0.07083 0.16,0.207515 0.27086,0.270864 1.15659,0.660906 -0.62939,-0.720336 0.8126,0.361154 0.10215,0.07661 0.15666,0.213762 0.27087,0.270867 0.13725,0.06863 0.31418,0.02167 0.45144,0.09029 0.29905,0.149526 0.22398,0.245689 0.36115,0.451442 0.0472,0.07083 0.15993,0.09799 0.18058,0.180576 0.0642,0.256775 0.0436,0.821721 0,1.083461 -0.0267,0.159869 -0.15394,0.291576 -0.18058,0.451442 -0.0297,0.17812 0.0571,0.37042 0,0.541729 -0.0885,0.26547 -0.20546,0.460677 -0.27087,0.722307 -0.13754,0.55018 0.0451,1.354291 0.27087,1.805768 0.18788,0.375759 -0.006,-0.09652 0.18058,0.09029 0.0213,0.02127 -0.0135,0.06337 0,0.09029 0.0381,0.07614 0.1425,0.104439 0.18057,0.180578 0.0135,0.02692 0,0.06019 0,0.09029 0.0301,0.06019 0.053,0.124582 0.0903,0.180576 0.0236,0.03541 0.0602,0.06019 0.0903,0.09029 0.0602,0.0301 0.1402,0.03645 0.18058,0.09029 0.0571,0.07614 0.0477,0.185743 0.0903,0.270867 0.0947,0.189368 0.37115,0.5183 0.54172,0.632018 0.13343,0.08894 0.53001,0.117838 0.63202,0.270865 -0.0768,0.282451 0.0812,0.171537 0.18058,0.270864 0.14715,0.147151 -0.31691,1.127708 0,1.444615 0.15728,0.157279 0.45958,0.155906 0.63202,0.270864 0.10624,0.07083 0.16,0.207516 0.27086,0.270865 0.10774,0.06157 0.25017,0.0348 0.36116,0.09029 0.13459,0.0673 0.22364,0.209748 0.36115,0.270865 0.14023,0.06233 0.31121,0.02796 0.45144,0.09029 0.29821,0.132535 0.53959,0.390892 0.90289,0.451442 0.0316,0.0053 1.23839,0.154938 1.26403,0.180576 0.0476,0.04758 0.0602,0.120378 0.0903,0.180578"
       id="path35" />
    <path
       style="fill:none;stroke:#000000;stroke-width:0.264999"
       d="m 126.76485,99.768632 c -0.0301,0.120383 -0.21067,0.331058 -0.0903,0.361158 0.12039,0.0301 0.0903,-0.485247 0.0903,-0.361158 0,0.332418 -0.23895,0.695848 -0.0903,0.993168 0.0981,0.19622 0.26646,0.18058 0.45144,0.18058 0.10029,0 0.56818,0.0638 0.63202,0 0.0615,-0.0615 0.0721,-0.34301 0.0903,-0.36115 0.0213,-0.0213 0.069,0.0213 0.0903,0 0.0338,-0.0338 0.0338,-0.778829 0,-0.812598 -0.0444,-0.0444 -0.27596,-0.09029 -0.36116,-0.09029 -0.29187,0 -0.46643,0.04084 -0.81259,0.09029 z"
       id="path36" />
    <path
       style="fill:none;stroke:#000000;stroke-width:0.264999"
       d="m 152.7679,89.746623 c -0.87238,0.321794 -1.91512,0.289931 -2.61837,0.993172 -0.42233,0.42233 -0.17086,0.246581 -0.36115,0.722307 -0.0403,0.100753 -0.13205,0.173808 -0.18058,0.270865 -0.1648,0.329599 -0.33612,0.737494 -0.45144,1.08346 -0.019,0.0571 0,0.120386 0,0.180579 -0.0602,0.180575 -0.11374,0.363503 -0.18058,0.541729 -0.17553,0.468082 -0.47181,0.84655 -0.7223,1.264036 -0.31749,0.52914 -0.19469,0.51599 -0.54173,0.993172 -0.49224,0.676825 -0.99198,1.352925 -1.53491,1.986343 -0.45076,0.525894 -1.00573,0.93099 -1.5349,1.354326 -0.1051,0.08408 -0.25347,0.09982 -0.36115,0.180578 -0.14702,0.110265 -0.28378,0.367612 -0.45144,0.451442 -0.19134,0.09567 -0.4309,0.170302 -0.63202,0.270868 -0.0381,0.019 -0.049,0.08 -0.0903,0.0903 -0.3483,0.0871 -0.73395,0.0204 -1.08346,0.0903 -0.066,0.0132 -0.11459,0.0771 -0.18058,0.0903 -0.48355,0.0967 -2.9912,-0.12959 -3.25038,0 -0.0761,0.0381 -0.10154,0.14896 -0.18057,0.18058 -0.0838,0.0335 -0.18233,-0.0177 -0.27087,0 -0.16695,0.0334 -0.84532,0.35287 -0.99317,0.45144 -0.056,0.0373 -0.13299,0.0427 -0.18058,0.0903 -0.0213,0.0213 0.0269,0.0768 0,0.0903 -0.0538,0.0269 -0.12674,-0.0269 -0.18057,0 -0.0269,0.0135 0.0213,0.069 0,0.0903 -0.0213,0.0213 -0.0634,-0.0135 -0.0903,0 -0.0381,0.019 -0.0499,0.0768 -0.0903,0.0903 -0.18861,0.0629 -0.44107,-0.0545 -0.63202,0 -0.12941,0.037 -0.23174,0.1436 -0.36115,0.18058 -0.081,0.0231 -2.38222,0.0583 -2.52808,0 -0.49317,-0.19727 -0.10763,-0.18058 -0.36115,-0.18058"
       id="path37" />
    <path
       style="fill:none;stroke:#000000;stroke-width:0.264999"
       d="m 132.36273,100.7618 c -0.0602,0.12039 -0.30096,0.30096 -0.18058,0.36116 0.12038,0.0602 0.26133,-0.46883 0.18058,-0.36116 -0.44456,0.59275 -0.45145,0.53086 -0.45145,0.99318 0,0.13979 0.049,0.50045 0.0903,0.54172 0.0603,0.0603 0.12032,-0.0603 0.18058,0 0.0213,0.0213 -0.0213,0.069 0,0.0903 0.13256,0.13257 0.77504,-0.0527 0.81259,-0.0903 0.038,-0.038 0.0245,-0.71451 0,-0.81259 -0.007,-0.0292 -0.069,0.0213 -0.0903,0 -0.0213,-0.0213 0.0181,-0.0662 0,-0.0903 -0.16649,-0.22198 -0.36116,-0.42134 -0.54173,-0.63202 z"
       id="path38" />
    <path
       style="fill:none;stroke:#000000;stroke-width:0.264999"
       d="m 107.53343,70.334628 5.68817,0.09029"
       id="path39" />
    <path
       style="fill:none;stroke:#000000;stroke-width:0.264999"
       d="M 113.04102,70.424915 V 58.777719"
       id="path40" />
    <path
       style="fill:none;stroke:#000000;stroke-width:0.264999"
       d="M 93.26787,70.334628 93.177581,59.138872"
       id="path41" />
    <path
       style="fill:none;stroke:#000000;stroke-width:0.264999"
       d="m 93.155009,59.296876 6.658766,-0.06771"
       id="path42" />
    <path
       style="fill:none;stroke:#000000;stroke-width:0.264999"
       d="m 99.791204,56.678514 0.04514,4.965859"
       id="path43" />
    <path
       style="fill:none;stroke:#000000;stroke-width:0.264999"
       d="m 102.04841,56.723658 0.0903,4.853"
       id="path44" />
    <path
       style="fill:none;stroke:#000000;stroke-width:0.264999"
       d="m 102.20642,59.048583 10.74431,-0.158004"
       id="path45" />
    <path
       style="fill:none;stroke:#000000;stroke-width:0.264999"
       d="m 99.136614,57.626543 c 0.03009,-0.01505 0.105336,-0.01505 0.09029,-0.04515 -0.01506,-0.0301 -0.120383,0.06019 -0.09029,0.04515 0.102013,-0.05101 0.200851,-0.09628 0.293436,-0.158007 0.04341,-0.02894 0.06945,-0.08392 0.112861,-0.11286 0.02061,-0.01373 0.05478,-0.01926 0.06771,-0.04514 0.01998,-0.03997 0.0694,-0.07107 0.09029,-0.112861 0.02347,-0.04692 0.04935,-0.117068 0.09029,-0.158004"
       id="path46" />
    <path
       style="fill:none;stroke:#000000;stroke-width:0.264999"
       d="m 99.204329,58.34885 c 0.116258,-0.06649 0.246414,-0.08629 0.361154,-0.158006 0.100094,-0.06256 0.0031,-0.0483 0.04514,-0.09029 0.01064,-0.01064 0.0345,0.01064 0.04515,0 0.0053,-0.0053 -0.0053,-0.01725 0,-0.02257 0.01191,-0.01191 0.03325,-0.01066 0.04514,-0.02257"
       id="path47" />
    <path
       style="fill:none;stroke:#000000;stroke-width:0.264999"
       d="m 99.226901,58.980868 c 0.145788,-0.06799 0.282524,-0.166933 0.383725,-0.293438 0.03371,-0.04214 0.02852,-0.112861 0.09029,-0.112861"
       id="path48" />
    <path
       style="fill:none;stroke:#000000;stroke-width:0.264999"
       d="m 99.272046,59.77089 c 0.185439,-0.06549 0.33382,-0.209087 0.519158,-0.270864"
       id="path49" />
    <path
       style="fill:none;stroke:#000000;stroke-width:0.264999"
       d="m 99.249472,60.357765 c 0.08831,-0.167494 0.438949,-0.168084 0.564303,-0.293439"
       id="path50" />
    <path
       style="fill:none;stroke:#000000;stroke-width:0.264999"
       d="m 99.226901,60.922066 c 0.135464,-0.01606 0.354721,-0.106426 0.451442,-0.203147"
       id="path51" />
    <path
       style="fill:none;stroke:#000000;stroke-width:0.264999"
       d="m 99.226901,61.441226 c 0.145071,-0.09499 0.345675,-0.104473 0.428871,-0.270867"
       id="path52" />
    <path
       style="fill:none;stroke:#000000;stroke-width:0.264999"
       d="m 99.565483,53.089553 0.09029,0.654589"
       id="path53" />
    <path
       style="fill:none;stroke:#000000;stroke-width:0.264999"
       d="m 99.6332,54.015007 0.112858,0.699736"
       id="path54" />
    <path
       style="fill:none;stroke:#000000;stroke-width:0.264999"
       d="m 99.6332,55.075896 c 0.07291,0.110207 0.06771,0.160621 0.06771,0.270865"
       id="path55" />
    <path
       style="fill:none;stroke:#000000;stroke-width:0.264999"
       d="m 99.700915,55.730486 c 0,0.120385 0,0.240771 0,0.361154"
       id="path56" />
    <path
       style="fill:none;stroke:#000000;stroke-width:0.264999"
       d="m 101.86784,53.021835 c 0.0519,0.200721 0.0451,0.404355 0.0451,0.609447"
       id="path57" />
    <path
       style="fill:none;stroke:#000000;stroke-width:0.264999"
       d="m 101.91298,54.195585 c 0.0624,0.130522 0.0451,0.266623 0.0451,0.406297"
       id="path58" />
    <path
       style="fill:none;stroke:#000000;stroke-width:0.264999"
       d="m 101.95812,54.985607 c 0.0314,0.118547 0.0226,0.240136 0.0226,0.361154"
       id="path59" />
    <path
       style="fill:none;stroke:#000000;stroke-width:0.264999"
       d="m 101.93555,55.753058 c 0.0151,0.03762 0.008,0.12791 0.0451,0.11286 0.0376,-0.01506 -0.058,-0.151299 -0.0451,-0.11286 -0.0246,0.09788 0.0647,0.148844 0.0903,0.225721 0.0113,0.03386 -0.0113,0.079 0,0.112861 0.0279,0.08368 0.0226,-0.02752 0.0226,0.04515"
       id="path60" />
    <path
       style="fill:none;stroke:#000000;stroke-width:0.264999"
       d="m 97.940293,53.766714 c 1.049292,-0.04075 2.091337,0.112519 3.137517,0.158007 0.44977,0.01955 0.90383,0 1.35433,0 0.1928,0 0.41885,-0.02932 0.60944,0 0.047,0.0072 0.0885,0.03732 0.13544,0.04514 0.1753,0.02922 0.49781,0 0.69973,0"
       id="path61" />
    <path
       style="fill:none;stroke:#000000;stroke-width:0.264999"
       d="m 102.49985,53.382989 c -0.0617,0.120436 -0.22774,0.155908 -0.29343,0.270864 -0.13212,0.231212 0.0485,-0.005 -0.0451,0.135435 -0.0118,0.0177 -0.0356,0.02612 -0.0451,0.04514 -0.003,0.0067 0.005,0.01725 0,0.02257 -0.005,0.0053 -0.0173,-0.0053 -0.0226,0 -0.0104,0.01042 0.007,0.05409 0,0.06772 -0.0388,0.07765 -0.0131,0.109207 0.0226,0.180575 0.0625,0.125074 0.47131,0.2241 0.58687,0.293437 0.0316,0.01897 0.23752,0.06772 0.18058,0.06772"
       id="path62" />
    <path
       style="fill:none;stroke:#000000;stroke-width:0.264999"
       d="m 99.11404,53.2927 c 0.08432,0.09252 0.172413,0.17172 0.270867,0.248293 0.04888,0.03802 0.34091,0.178247 0.293436,0.225721 -0.0024,0.0024 -0.136813,0.08605 -0.158004,0.09029 -0.02215,0.0044 -0.04582,-0.0055 -0.06772,0 -0.03364,0.0084 -0.07329,0.05783 -0.112861,0.06772 -0.06881,0.0172 -0.03106,-0.03196 -0.11286,0.02257 -0.271902,0.181268 0.140369,-0.02906 -0.158004,0.09029 -0.04806,0.01924 -0.162198,0.180575 -0.112861,0.180575 0.0075,0 0,-0.01505 0,-0.02257"
       id="path63" />
    <path
       style="fill:none;stroke:#000000;stroke-width:0.264999"
       d="m 100.58123,51.464363 c -0.0602,-0.01505 -0.16553,-0.105339 -0.18058,-0.04515 -0.0151,0.06019 0.19274,-0.01569 0.18058,0.04515 -0.0319,0.159607 -0.20351,0.258117 -0.27087,0.406297 -0.0182,0.04011 0.33578,0.348466 0.36115,0.361153 0.0217,0.01087 0.6552,0.06711 0.67717,0.04514 0.0262,-0.02625 0.0596,-0.119136 0.0903,-0.180575 0.0151,-0.03018 0.0207,-0.340503 0,-0.361154 -0.0106,-0.01064 -0.0345,0.01064 -0.0451,0 -0.0213,-0.02127 0.0135,-0.06337 0,-0.09029 -0.0327,-0.06546 -0.18184,-0.09155 -0.22572,-0.135432 -0.0106,-0.01064 0.0106,-0.0345 0,-0.04514 -0.0213,-0.02127 -0.0634,0.01347 -0.0903,0 -0.16801,-0.08401 -0.27323,-0.03191 -0.49658,0 z"
       id="path64" />
    <path
       style="fill:none;stroke:#000000;stroke-width:0.264999"
       d="m 101.5744,49.568306 c -0.0377,0.263964 0.0477,0.550434 0,0.812596 -0.0145,0.07973 -0.0727,0.146614 -0.0903,0.225721 -0.0485,0.218152 -0.002,0.460153 -0.0451,0.677162 -0.007,0.033 -0.0345,0.05837 -0.0451,0.09029 -0.0427,0.128254 0.0599,0.331568 0,0.451442 -0.0706,0.141216 -0.0451,0.327539 -0.0451,0.496586"
       id="path65" />
    <path
       style="fill:none;stroke:#000000;stroke-width:0.264999"
       d="m 104.47669,156.73028 0.0451,4.96586"
       id="path43-5" />
    <path
       style="fill:none;stroke:#000000;stroke-width:0.264999"
       d="m 106.7339,156.77543 0.0903,4.853"
       id="path44-9" />
    <path
       style="fill:none;stroke:#000000;stroke-width:0.264999"
       d="m 103.8221,157.67831 c 0.0301,-0.0151 0.10534,-0.0151 0.0903,-0.0452 -0.0151,-0.0301 -0.12038,0.0602 -0.0903,0.0452 0.10202,-0.051 0.20086,-0.0963 0.29344,-0.15801 0.0434,-0.0289 0.0695,-0.0839 0.11286,-0.11286 0.0206,-0.0137 0.0548,-0.0193 0.0677,-0.0451 0.02,-0.04 0.0694,-0.0711 0.0903,-0.11286 0.0235,-0.0469 0.0494,-0.11707 0.0903,-0.158"
       id="path46-2" />
    <path
       style="fill:none;stroke:#000000;stroke-width:0.264999"
       d="m 103.88982,158.40062 c 0.11626,-0.0665 0.24641,-0.0863 0.36115,-0.15801 0.1001,-0.0626 0.003,-0.0483 0.0451,-0.0903 0.0106,-0.0106 0.0345,0.0106 0.0451,0 0.005,-0.005 -0.005,-0.0172 0,-0.0226 0.0119,-0.0119 0.0333,-0.0107 0.0451,-0.0226"
       id="path47-2" />
    <path
       style="fill:none;stroke:#000000;stroke-width:0.264999"
       d="m 103.91239,159.03264 c 0.14579,-0.068 0.28253,-0.16694 0.38373,-0.29344 0.0337,-0.0421 0.0285,-0.11286 0.0903,-0.11286"
       id="path48-8" />
    <path
       style="fill:none;stroke:#000000;stroke-width:0.264999"
       d="m 103.95754,159.82266 c 0.18544,-0.0655 0.33382,-0.20909 0.51915,-0.27087"
       id="path49-9" />
    <path
       style="fill:none;stroke:#000000;stroke-width:0.264999"
       d="m 103.93496,160.40953 c 0.0883,-0.16749 0.43895,-0.16808 0.56431,-0.29344"
       id="path50-7" />
    <path
       style="fill:none;stroke:#000000;stroke-width:0.264999"
       d="m 103.91239,160.97383 c 0.13547,-0.0161 0.35472,-0.10642 0.45144,-0.20314"
       id="path51-3" />
    <path
       style="fill:none;stroke:#000000;stroke-width:0.264999"
       d="m 103.91239,161.49299 c 0.14507,-0.095 0.34568,-0.10447 0.42887,-0.27086"
       id="path52-6" />
    <path
       style="fill:none;stroke:#000000;stroke-width:0.264999"
       d="m 104.25097,153.14132 0.0903,0.65459"
       id="path53-1" />
    <path
       style="fill:none;stroke:#000000;stroke-width:0.264999"
       d="m 104.31869,154.06677 0.11286,0.69974"
       id="path54-2" />
    <path
       style="fill:none;stroke:#000000;stroke-width:0.264999"
       d="m 104.31869,155.12766 c 0.0729,0.11021 0.0677,0.16062 0.0677,0.27087"
       id="path55-9" />
    <path
       style="fill:none;stroke:#000000;stroke-width:0.264999"
       d="m 104.38641,155.78225 c 0,0.12039 0,0.24077 0,0.36116"
       id="path56-3" />
    <path
       style="fill:none;stroke:#000000;stroke-width:0.264999"
       d="m 106.55333,153.0736 c 0.0519,0.20072 0.0451,0.40436 0.0451,0.60945"
       id="path57-1" />
    <path
       style="fill:none;stroke:#000000;stroke-width:0.264999"
       d="m 106.59847,154.24735 c 0.0624,0.13052 0.0451,0.26663 0.0451,0.4063"
       id="path58-9" />
    <path
       style="fill:none;stroke:#000000;stroke-width:0.264999"
       d="m 106.64361,155.03737 c 0.0314,0.11855 0.0226,0.24014 0.0226,0.36116"
       id="path59-4" />
    <path
       style="fill:none;stroke:#000000;stroke-width:0.264999"
       d="m 106.62104,155.80483 c 0.0151,0.0376 0.008,0.12791 0.0451,0.11286 0.0376,-0.0151 -0.058,-0.1513 -0.0451,-0.11286 -0.0246,0.0979 0.0647,0.14884 0.0903,0.22572 0.0113,0.0339 -0.0113,0.079 0,0.11286 0.0279,0.0837 0.0226,-0.0275 0.0226,0.0452"
       id="path60-7" />
    <path
       style="fill:none;stroke:#000000;stroke-width:0.264999"
       d="m 102.62578,153.81848 c 1.0493,-0.0408 2.09134,0.11252 3.13752,0.15801 0.44977,0.0196 0.90383,0 1.35433,0 0.1928,0 0.41885,-0.0293 0.60944,0 0.047,0.007 0.0885,0.0373 0.13544,0.0451 0.1753,0.0292 0.49781,0 0.69973,0"
       id="path61-8" />
    <path
       style="fill:none;stroke:#000000;stroke-width:0.264999"
       d="m 107.18534,153.43476 c -0.0617,0.12043 -0.22774,0.1559 -0.29343,0.27086 -0.13212,0.23121 0.0485,-0.005 -0.0451,0.13544 -0.0118,0.0177 -0.0356,0.0261 -0.0451,0.0451 -0.003,0.007 0.005,0.0173 0,0.0226 -0.005,0.005 -0.0173,-0.005 -0.0226,0 -0.0104,0.0104 0.007,0.0541 0,0.0677 -0.0388,0.0776 -0.0131,0.1092 0.0226,0.18057 0.0625,0.12507 0.47131,0.2241 0.58687,0.29344 0.0316,0.019 0.23752,0.0677 0.18058,0.0677"
       id="path62-4" />
    <path
       style="fill:none;stroke:#000000;stroke-width:0.264999"
       d="m 103.79953,153.34447 c 0.0843,0.0925 0.17241,0.17172 0.27087,0.24829 0.0489,0.038 0.34091,0.17825 0.29343,0.22572 -0.002,0.002 -0.13681,0.0861 -0.158,0.0903 -0.0221,0.004 -0.0458,-0.005 -0.0677,0 -0.0336,0.008 -0.0733,0.0578 -0.11286,0.0677 -0.0688,0.0172 -0.0311,-0.032 -0.11286,0.0226 -0.2719,0.18127 0.14037,-0.0291 -0.15801,0.0903 -0.0481,0.0192 -0.16219,0.18058 -0.11286,0.18058 0.007,0 0,-0.015 0,-0.0226"
       id="path63-5" />
    <path
       style="fill:none;stroke:#000000;stroke-width:0.264999"
       d="m 105.26672,151.51613 c -0.0602,-0.0151 -0.16553,-0.10534 -0.18058,-0.0452 -0.0151,0.0602 0.19274,-0.0157 0.18058,0.0452 -0.0319,0.15961 -0.20351,0.25812 -0.27087,0.4063 -0.0182,0.0401 0.33578,0.34846 0.36115,0.36115 0.0217,0.0109 0.6552,0.0671 0.67717,0.0451 0.0262,-0.0263 0.0596,-0.11914 0.0903,-0.18057 0.0151,-0.0302 0.0207,-0.34051 0,-0.36116 -0.0106,-0.0106 -0.0345,0.0106 -0.0451,0 -0.0213,-0.0213 0.0135,-0.0634 0,-0.0903 -0.0327,-0.0655 -0.18184,-0.0916 -0.22572,-0.13543 -0.0106,-0.0106 0.0106,-0.0345 0,-0.0451 -0.0213,-0.0213 -0.0634,0.0135 -0.0903,0 -0.16801,-0.084 -0.27323,-0.0319 -0.49658,0 z"
       id="path64-0" />
    <path
       style="fill:none;stroke:#000000;stroke-width:0.264999"
       d="m 106.25989,149.62007 c -0.0377,0.26397 0.0477,0.55044 0,0.8126 -0.0145,0.0797 -0.0727,0.14661 -0.0903,0.22572 -0.0485,0.21815 -0.002,0.46015 -0.0451,0.67716 -0.007,0.033 -0.0345,0.0584 -0.0451,0.0903 -0.0427,0.12826 0.0599,0.33157 0,0.45144 -0.0706,0.14122 -0.0451,0.32754 -0.0451,0.49659"
       id="path65-3" />
    <text
       xml:space="preserve"
       style="font-size:2.11667px;text-align:start;writing-mode:lr-tb;direction:ltr;text-anchor:start;fill:none;stroke:#000000;stroke-width:0.264999"
       x="103.19958"
       y="70.87635"
       id="text65"><tspan
         sodipodi:role="line"
         id="tspan65"
         style="stroke-width:0.265"
         x="103.19958"
         y="70.87635">E</tspan></text>
    <circle
       style="fill:none;stroke:#000000;stroke-width:0.264999"
       id="path34-6"
       cx="132.14435"
       cy="169.47849"
       r="3.3406692" />
    <text
       xml:space="preserve"
       style="font-size:2.11667px;text-align:start;writing-mode:lr-tb;direction:ltr;text-anchor:start;fill:none;stroke:#000000;stroke-width:0.264999"
       x="131.24147"
       y="170.11049"
       id="text65-3"><tspan
         sodipodi:role="line"
         id="tspan65-2"
         style="stroke-width:0.265"
         x="131.24147"
         y="170.11049">E</tspan></text>
    <text
       xml:space="preserve"
       style="font-size:2.11667px;text-align:start;writing-mode:lr-tb;direction:ltr;text-anchor:start;fill:none;stroke:#000000;stroke-width:0.264999"
       x="106.08881"
       y="79.182877"
       id="text66"><tspan
         sodipodi:role="line"
         id="tspan66"
         style="fill:#ff0000;fill-opacity:1;stroke:none;stroke-width:0.265"
         x="106.08881"
         y="79.182877">+1000V</tspan></text>
    <text
       xml:space="preserve"
       style="font-size:2.11667px;text-align:start;writing-mode:lr-tb;direction:ltr;text-anchor:start;fill:none;stroke:#000000;stroke-width:0.264999"
       x="107.75948"
       y="168.27046"
       id="text66-5"><tspan
         sodipodi:role="line"
         id="tspan66-5"
         style="fill:#ff0000;fill-opacity:1;stroke:none;stroke-width:0.265"
         x="107.75948"
         y="168.27046">+1000V</tspan></text>
    <text
       xml:space="preserve"
       style="font-size:1.76389px;text-align:start;writing-mode:lr-tb;direction:ltr;text-anchor:start;fill:#ff0000;fill-opacity:1;stroke:none;stroke-width:0.264999"
       x="119.45149"
       y="104.05733"
       id="text67"><tspan
         sodipodi:role="line"
         id="tspan67"
         style="font-size:1.76389px;fill:#1a1a1a;stroke-width:0.265"
         x="119.45149"
         y="104.05733">Connect to charge the sphere</tspan><tspan
         sodipodi:role="line"
         style="font-size:1.76389px;fill:#1a1a1a;stroke-width:0.265"
         x="119.45149"
         y="106.26219"
         id="tspan68" /></text>
    <path
       style="fill:#1a1a1a;fill-opacity:1;stroke:#000000;stroke-width:0.264999;stroke-opacity:1"
       d="m 130.78268,72.682126 5.95903,-2.979516"
       id="path68" />
    <circle
       style="fill:#1a1a1a;fill-opacity:1;stroke:#000000;stroke-width:0.264999;stroke-opacity:1"
       id="path69"
       cx="137.37372"
       cy="69.43174"
       r="0.85773939" />
    <path
       style="fill:#1a1a1a;fill-opacity:1;stroke:#000000;stroke-width:0.264999;stroke-opacity:1"
       d="m 150.02481,155.83557 -0.008,6.66239"
       id="path68-2"
       sodipodi:nodetypes="cc" />
    <circle
       style="fill:#1a1a1a;fill-opacity:1;stroke:#000000;stroke-width:0.264999;stroke-opacity:1"
       id="path69-6"
       cx="78.632065"
       cy="-207.21669"
       r="0.85773939"
       transform="rotate(116.63513)" />
    <path
       style="fill:none;stroke:#000000;stroke-width:0.264999"
       d="m 105.63498,76.983643 0.0958,7.43777"
       id="path25" />
    <path
       style="fill:none;stroke:#000000;stroke-width:0.264999"
       d="m 104.74117,79.345853 0.0319,2.745272"
       id="path26" />
    <path
       style="fill:none;stroke:#000000;stroke-width:0.264999"
       d="m 103.74703,76.989988 0.0958,7.43777"
       id="path25-5" />
    <path
       style="fill:none;stroke:#000000;stroke-width:0.264999"
       d="m 102.85322,79.352198 0.0319,2.745272"
       id="path26-3" />
    <path
       style="fill:none;stroke:#000000;stroke-width:0.264999"
       d="m 106.95278,168.42371 0.0958,7.43777"
       id="path25-7" />
    <path
       style="fill:none;stroke:#000000;stroke-width:0.264999"
       d="m 106.05897,170.78592 0.0319,2.74527"
       id="path26-0" />
    <path
       style="fill:none;stroke:#000000;stroke-width:0.264999"
       d="m 105.06483,168.43005 0.0958,7.43777"
       id="path25-5-9" />
    <path
       style="fill:none;stroke:#000000;stroke-width:0.264999"
       d="m 104.17102,170.79226 0.0319,2.74528"
       id="path26-3-3" />
    <path
       style="fill:#1a1a1a;fill-opacity:1;stroke:#000000;stroke-width:0.264999;stroke-opacity:1"
       d="m 107.03364,172.18594 11.14069,0.0638"
       id="path70" />
    <path
       style="fill:#1a1a1a;fill-opacity:1;stroke:#000000;stroke-width:0.264999;stroke-opacity:1"
       d="M 106.81019,158.90649 H 117.6955"
       id="path71" />
    <path
       style="fill:#1a1a1a;fill-opacity:1;stroke:#000000;stroke-width:0.264999;stroke-opacity:1"
       d="m 118.04664,172.31363 -0.38305,-13.27945"
       id="path72" />
    <path
       style="fill:#1a1a1a;fill-opacity:1;stroke:#000000;stroke-width:0.264999;stroke-opacity:1"
       d="m 104.44798,159.09802 -9.640372,-0.25537"
       id="path73" />
    <path
       style="fill:#1a1a1a;fill-opacity:1;stroke:#000000;stroke-width:0.264999;stroke-opacity:1"
       d="m 104.12876,172.21786 -9.001933,-0.0319"
       id="path74" />
    <path
       style="fill:#1a1a1a;fill-opacity:1;stroke:#000000;stroke-width:0.264999;stroke-opacity:1"
       d="M 94.935295,180.32599 94.616078,158.74688"
       id="path75" />
    <path
       style="fill:#1a1a1a;fill-opacity:1;stroke:#000000;stroke-width:0.264999;stroke-opacity:1"
       d="m 94.807608,172.31363 0.542671,-0.0958"
       id="path76" />
    <path
       style="fill:#1a1a1a;fill-opacity:1;stroke:#000000;stroke-width:0.264999;stroke-opacity:1"
       d="m 94.616078,158.7788 h 0.574591"
       id="path77" />
    <path
       style="fill:#1a1a1a;fill-opacity:1;stroke:#000000;stroke-width:0.264999;stroke-opacity:1"
       d="m 141.6049,153.22442 0.38306,18.38693"
       id="path78" />
    <path
       style="fill:#1a1a1a;fill-opacity:1;stroke:#000000;stroke-width:0.264999;stroke-opacity:1"
       d="m 141.86027,171.61135 16.47163,0.12768"
       id="path79" />
    <path
       style="fill:#1a1a1a;fill-opacity:1;stroke:#000000;stroke-width:0.264999;stroke-opacity:1"
       d="m 158.26805,171.73903 -0.38306,-18.76999"
       id="path80" />
    <path
       style="fill:#1a1a1a;fill-opacity:1;stroke:#000000;stroke-width:0.17625;stroke-opacity:1"
       d="m 144.72705,154.17154 0.23578,13.21464"
       id="path78-5" />
    <path
       style="fill:#1a1a1a;fill-opacity:1;stroke:#000000;stroke-width:0.17625;stroke-opacity:1"
       d="m 144.88424,167.38618 10.13829,0.0917"
       id="path79-6" />
    <path
       style="fill:#1a1a1a;fill-opacity:1;stroke:#000000;stroke-width:0.17625;stroke-opacity:1"
       d="m 154.98323,167.47793 -0.23577,-13.48994"
       id="path80-9" />
    <path
       style="fill:#1a1a1a;fill-opacity:1;stroke:#000000;stroke-width:0.264999;stroke-opacity:1"
       d="m 149.92381,167.53004 -0.0903,3.97269"
       id="path87" />
    <path
       style="fill:#1a1a1a;fill-opacity:1;stroke:#000000;stroke-width:0.264999;stroke-opacity:1"
       d="m 124.30331,179.40026 -0.19153,-10.27881"
       id="path88" />
    <path
       style="fill:#1a1a1a;fill-opacity:1;stroke:#000000;stroke-width:0.264999;stroke-opacity:1"
       d="m 128.8362,169.50451 -4.59673,-0.19153"
       id="path89" />
    <path
       style="fill:#1a1a1a;fill-opacity:1;stroke:#000000;stroke-width:0.264999;stroke-opacity:1"
       d="m 140.24823,153.22442 1.14918,0.82996"
       id="path90" />
    <path
       style="fill:#1a1a1a;fill-opacity:1;stroke:#000000;stroke-width:0.264999;stroke-opacity:1"
       d="m 140.34399,153.12865 0.89381,-1.14918"
       id="path91" />
    <path
       style="fill:#1a1a1a;fill-opacity:1;stroke:#000000;stroke-width:0.264999;stroke-opacity:1"
       d="m 141.31761,152.04331 1.22898,0.90977"
       id="path92" />
    <path
       style="fill:#1a1a1a;fill-opacity:1;stroke:#000000;stroke-width:0.264999;stroke-opacity:1"
       d="m 142.48275,153.06481 -0.62248,0.78208"
       id="path93" />
    <path
       style="fill:#1a1a1a;fill-opacity:1;stroke:#000000;stroke-width:0.264999;stroke-opacity:1"
       d="m 141.3176,151.94755 -17.87618,-0.25538"
       id="path94" />
    <path
       style="fill:#1a1a1a;fill-opacity:1;stroke:#000000;stroke-width:0.264999;stroke-opacity:1"
       d="m 123.53719,151.66025 0.57459,17.65273"
       id="path95" />
    <path
       style="fill:#1a1a1a;fill-opacity:1;stroke:#000000;stroke-width:0.264999;stroke-opacity:1"
       d="m 135.47592,169.6322 2.10684,-0.19153"
       id="path96" />
    <path
       style="fill:#1a1a1a;fill-opacity:1;stroke:#000000;stroke-width:0.264999;stroke-opacity:1"
       d="m 137.32738,169.31298 -0.38306,-16.28009"
       id="path97" />
    <path
       style="fill:#1a1a1a;fill-opacity:1;stroke:#000000;stroke-width:0.264999;stroke-opacity:1"
       d="m 135.04498,153.11269 1.81954,0.0479"
       id="path98" />
    <path
       style="fill:#1a1a1a;fill-opacity:1;stroke:#000000;stroke-width:0.264999;stroke-opacity:1"
       d="m 135.10882,153.17653 0.0319,-2.76123"
       id="path99" />
    <path
       style="fill:#1a1a1a;fill-opacity:1;stroke:#000000;stroke-width:0.264999;stroke-opacity:1"
       d="m 135.14074,150.4153 1.93127,0.0958"
       id="path100" />
    <path
       style="fill:#1a1a1a;fill-opacity:1;stroke:#000000;stroke-width:0.264999;stroke-opacity:1"
       d="m 136.96029,150.54299 0.0638,-1.45244"
       id="path101" />
    <path
       style="fill:#1a1a1a;fill-opacity:1;stroke:#000000;stroke-width:0.264999;stroke-opacity:1"
       d="m 137.05605,149.13843 7.90063,0.30326"
       id="path102" />
    <path
       style="fill:#1a1a1a;fill-opacity:1;stroke:#000000;stroke-width:0.264999;stroke-opacity:1"
       d="m 144.9088,155.07588 0.78208,-1.26091"
       id="path103" />
    <path
       style="fill:#1a1a1a;fill-opacity:1;stroke:#000000;stroke-width:0.264999;stroke-opacity:1"
       d="m 145.643,153.75113 -0.90977,-0.86189"
       id="path104" />
    <path
       style="fill:#1a1a1a;fill-opacity:1;stroke:#000000;stroke-width:0.264999;stroke-opacity:1"
       d="m 144.70131,152.92116 -0.79804,0.92573"
       id="path105" />
    <path
       style="fill:#1a1a1a;fill-opacity:1;stroke:#000000;stroke-width:0.264999;stroke-opacity:1"
       d="m 143.93519,153.79901 0.4469,1.0215"
       id="path106" />
    <path
       style="fill:#1a1a1a;fill-opacity:1;stroke:#000000;stroke-width:0.264999;stroke-opacity:1"
       d="m 144.87688,149.48957 -0.12769,3.47947"
       id="path107" />
  </g>
</svg>
